# xmcd
#
# Track frame offsets:
#	150
#	16121
#	30807
#	46818
#	62038
#	75905
#	88901
#	103633
#	120780
#	134873
#	151578
#	165236
#	181516
#	200374
#	215848
#	229114
#	245874
#	259855
#	274947
#	287918
#	308748
#
# Disc length: 4398 seconds
# Revision: 0
# Processed by: cddbd v1.5.2PL0 Copyright (c) Steve Scherf et al.
# Submitted via: dBpowerAMP V12.0
#
DISCID=10112c15
DTITLE=Various Artist - Karneval Der Stars 39
DYEAR=2009
DGENRE=Kölsch
TTITLE0=Bläck Fööss - Bütze de Luxe
TTITLE1=Paveier - Hurra, wir leben noch
TTITLE2=Funky Marys - C'est la vie
TTITLE3=Räuber - Sing, Kösche Jung sing
TTITLE4=Hanak - Einmal nur
TTITLE5=Wanderer - BonBon
TTITLE6=Die Cöllner - 10 Meter geh'n
TTITLE7=Blötschkopp Marc Metzger - Äschermettwoch
TTITLE8=Marita Köllner - Wille Wille Witt
TTITLE9=Höhner - NaJuCo Colonia (Medley)
TTITLE10=Brings - Wenn et einmol läuf
TTITLE11=Räuber - Einer muss immer verlier'n (Schade)
TTITLE12=Klüngelköpp - Kölsche Fiesta
TTITLE13=Boore - Engel der Nacht
TTITLE14=Strossefäjer - Wir kommen alle in en Himmel
TTITLE15=Uwe E. - Künning em Veedel
TTITLE16=Cölln Girls - En Kölle jebütz
TTITLE17=Bernd Stelter - Severinsbröck
TTITLE18=Paveier - Spill noch einmol dat Leed
TTITLE19=Brings - Heimjonn
TTITLE20=Bläck Föös - He deit et wih un do deit et wih (Krätzje)
EXTD=
EXTT0=
EXTT1=
EXTT2=
EXTT3=
EXTT4=
EXTT5=
EXTT6=
EXTT7=
EXTT8=
EXTT9=
EXTT10=
EXTT11=
EXTT12=
EXTT13=
EXTT14=
EXTT15=
EXTT16=
EXTT17=
EXTT18=
EXTT19=
EXTT20=
PLAYORDER=
